<svg version="1.1" xmlns="http://www.w3.org/2000/svg" viewBox="0 0 500 500">
<rect width="500" height="500" fill="#0C0E1A"/>
<path fill="#7A61FE" d="M265.194489,139.172180 C286.711670,122.593109 311.891052,119.092842 337.919769,119.287567 C354.611572,119.412430 371.099701,121.296471 386.837494,127.658669 C413.203918,138.317612 425.952026,157.551453 425.280640,186.243057 C424.919342,201.683884 420.596832,215.547318 408.391937,225.799728 C404.915924,228.719650 400.443176,230.479202 396.353058,232.629181 C394.690948,233.502884 392.830231,233.998718 390.037445,235.052109 C391.958649,236.277847 392.773254,237.077744 393.741913,237.374207 C413.372589,243.382431 424.165619,257.134064 427.212738,276.885895 C430.028564,295.138458 428.305389,312.910675 417.082977,328.458344 C406.785065,342.725128 391.865326,350.103973 375.237335,353.673798 C348.918243,359.324219 322.322479,360.077759 295.900055,354.324554 C261.439758,346.821167 243.538651,325.705780 241.227676,290.583252 C240.902328,285.638733 241.182693,280.654388 241.182693,275.342529 C242.632416,275.175079 243.896133,274.903412 245.160202,274.901825 C266.156036,274.875122 287.151978,274.907227 308.147705,274.851685 C310.912872,274.844391 313.183380,274.890686 312.871826,278.666290 C311.497620,295.318146 323.144836,301.746765 339.058838,299.807892 C341.994293,299.450256 344.940216,298.551025 347.691193,297.433655 C354.064514,294.844940 357.116455,289.941772 357.243896,283.027802 C357.375214,275.900970 355.333313,269.658112 348.121094,267.534180 C341.528778,265.592834 334.499664,264.957672 327.611084,264.260315 C322.827423,263.776031 317.954071,264.085205 313.123932,264.187500 C310.230743,264.248810 308.891724,263.240112 308.911316,260.141235 C309.002960,245.644684 309.016907,231.146683 308.897766,216.650497 C308.870361,213.315247 310.226257,212.293350 313.366058,212.368790 C319.361298,212.512833 325.482605,213.142654 331.327881,212.193329 C337.231415,211.234528 343.409088,209.515457 348.475830,206.477142 C354.685852,202.753235 356.193390,195.911499 355.137848,188.835678 C354.097321,181.860321 349.445587,177.801941 342.981079,176.536575 C337.708954,175.504623 331.976135,174.832001 326.785248,175.803772 C316.688751,177.693939 312.958496,183.183685 312.841827,193.394547 C312.745514,201.825531 314.401886,201.316788 304.783325,201.324097 C285.620422,201.338669 266.457520,201.330704 247.294632,201.327652 C240.899506,201.326630 240.817749,201.318207 241.003128,194.707840 C241.100830,191.223648 241.541992,187.749084 241.900146,183.453064 C244.457672,165.340164 252.456085,150.989914 265.194489,139.172180z"/>
<path fill="#00D2A9" d="M265.151245,138.695282 C252.456085,150.989914 244.457672,165.340164 241.879501,182.997253 C214.328171,183.358566 186.869583,183.358566 159.099487,183.358566 C159.099487,191.880371 159.099487,200.144897 159.099487,209.237427 C160.781357,209.237427 162.524292,209.237411 164.267212,209.237427 C195.918900,209.237488 227.570969,209.310898 259.221863,209.153137 C263.627197,209.131180 265.297485,210.087708 265.200195,214.919235 C264.878265,230.905182 264.942108,246.903641 265.171936,262.892761 C265.231781,267.053345 264.016357,268.262115 259.859833,268.241943 C228.042313,268.087402 196.223694,268.157379 164.405411,268.157593 C162.771210,268.157623 161.137024,268.157593 158.958313,268.157593 C158.958313,296.401062 158.958313,324.292297 158.958313,352.646790 C133.711792,352.646790 109.006187,352.646790 83.891739,352.646790 C83.891739,276.798462 83.891739,200.806854 83.891739,124.488892 C144.114532,124.488892 204.162094,124.488892 265.107971,124.488892 C265.107971,129.068298 265.107971,133.643341 265.151245,138.695282z"/>
</svg>
